<svg width="17" height="16" viewBox="0 0 17 16" fill="none" xmlns="http://www.w3.org/2000/svg">
<path d="M13.3245 8.42439L9.7245 12.0244C9.61178 12.1371 9.45891 12.2004 9.2995 12.2004C9.14009 12.2004 8.98722 12.1371 8.8745 12.0244C8.76178 11.9117 8.69846 11.7588 8.69846 11.5994C8.69846 11.44 8.76178 11.2871 8.8745 11.1744L11.45 8.59989H4.1C3.94087 8.59989 3.78826 8.53668 3.67574 8.42416C3.56321 8.31163 3.5 8.15902 3.5 7.99989C3.5 7.84076 3.56321 7.68815 3.67574 7.57563C3.78826 7.46311 3.94087 7.39989 4.1 7.39989H11.45L8.8755 4.82389C8.76278 4.71118 8.69946 4.5583 8.69946 4.39889C8.69946 4.23949 8.76278 4.08661 8.8755 3.97389C8.98822 3.86118 9.14109 3.79785 9.3005 3.79785C9.45991 3.79785 9.61278 3.86118 9.7255 3.97389L13.3255 7.57389C13.3814 7.62971 13.4258 7.69603 13.4561 7.76904C13.4863 7.84205 13.5018 7.92032 13.5017 7.99935C13.5016 8.07838 13.4859 8.15661 13.4555 8.22955C13.4251 8.30249 13.3806 8.36871 13.3245 8.42439Z" fill="white"/>
</svg>
